<?xml version="1.0" encoding="utf-8"?>
<!-- Generator: Adobe Illustrator 22.0.0, SVG Export Plug-In . SVG Version: 6.00 Build 0)  -->
<svg version="1.1" id="Layer_1" xmlns="http://www.w3.org/2000/svg" xmlns:xlink="http://www.w3.org/1999/xlink" x="0px" y="0px"
	 viewBox="0 0 100 100" style="enable-background:new 0 0 100 100;" xml:space="preserve">
<style type="text/css">
	.st0{fill:#F9C82D;}
</style>
<g id="Sun">
	<circle id="XMLID_61_" class="st0" cx="49.9" cy="50.3" r="24.5"/>
	<g>
		<path id="XMLID_60_" class="st0" d="M50.3,18h-0.7c-0.7,0-1.3-0.7-1.3-1.3V1.1c0-0.7,0.7-1.3,1.3-1.3h0.7c0.7,0,1.3,0.7,1.3,1.3
			v15.6C51.7,17.4,51,18,50.3,18z"/>
		<path id="XMLID_59_" class="st0" d="M50.3,82h-0.7c-0.7,0-1.3,0.7-1.3,1.3v15.6c0,0.7,0.7,1.3,1.3,1.3h0.7c0.7,0,1.3-0.7,1.3-1.3
			V83.3C51.7,82.4,51,82,50.3,82z"/>
		<path id="XMLID_58_" class="st0" d="M18,49.7v0.7c0,0.7-0.7,1.3-1.3,1.3H1.1c-0.7,0-1.3-0.7-1.3-1.3v-0.7c0-0.7,0.7-1.3,1.3-1.3
			h15.6C17.4,48.3,18,48.8,18,49.7z"/>
		<path id="XMLID_57_" class="st0" d="M82,49.7v0.7c0,0.7,0.7,1.3,1.3,1.3h15.6c0.7,0,1.3-0.7,1.3-1.3v-0.7c0-0.7-0.7-1.3-1.3-1.3
			H83.3C82.4,48.3,82,48.8,82,49.7z"/>
		<path id="XMLID_56_" class="st0" d="M25.4,70.4l0.4,0.7c0.4,0.4,0.4,1.3-0.2,1.8l-11.8,10c-0.4,0.4-1.3,0.4-1.8-0.2L11.6,82
			c-0.4-0.4-0.4-1.3,0.2-1.8l11.8-10C24.3,69.9,24.9,69.9,25.4,70.4z"/>
		<path id="XMLID_55_" class="st0" d="M73.9,29l0.4,0.7c0.4,0.4,1.3,0.7,1.8,0.2l11.8-10c0.4-0.4,0.7-1.3,0.2-1.8l-0.4-0.7
			c-0.4-0.4-1.3-0.7-1.8-0.2l-11.8,10C73.5,27.6,73.5,28.3,73.9,29z"/>
		<path id="XMLID_54_" class="st0" d="M25.4,29.4l0.4-0.7c0.4-0.4,0.4-1.3-0.2-1.8L14,16.9c-0.4-0.4-1.3-0.2-1.8,0.2l-0.4,0.4
			c-0.4,0.7-0.4,1.3,0.2,1.8l11.8,10C24.3,30.1,24.9,30.1,25.4,29.4z"/>
		<path id="XMLID_53_" class="st0" d="M73.9,71l0.4-0.7c0.4-0.4,1.3-0.7,1.8-0.2l11.8,10c0.4,0.4,0.7,1.3,0.2,1.8l-0.4,0.7
			c-0.4,0.4-1.3,0.7-1.8,0.2l-11.8-10C73.5,72.4,73.5,71.5,73.9,71z"/>
	</g>
</g>
</svg>
